<svg xmlns="http://www.w3.org/2000/svg" xmlns:svg="http://www.w3.org/2000/svg" id="svg2" width="780" height="501" version="1.1" viewBox="0 0 780 501"><metadata id="metadata53"/><title id="title4">default</title><desc id="desc6">Created with Sketch.</desc><g id="Page-1" transform="translate(15,15)" style="fill:none;fill-rule:evenodd;stroke:none;stroke-width:1"><g id="default" transform="translate(0,-269)"><g id="g12"><g id="g14"><rect id="Rectangle-1" width="750" height="471" x="0" y="269" rx="40" style="fill:none;fill-opacity:1;stroke:#393939;stroke-width:30;stroke-miterlimit:4;stroke-dasharray:none;stroke-opacity:1"/><rect id="rect4183" width="110.324" height="99.679" x="48.71" y="422.576" rx="20.323" style="fill:#000;fill-opacity:.19607843"/><g id="text4185" transform="translate(51,548)" style="fill:#000;fill-opacity:.78431374"><polygon id="path4219" points="21.985 16.305 17.787 16.305 17.385 27.575 5.942 27.575 16.522 2.505 12.555 .78 .882 27.92 .882 31.37 17.327 31.37 17.327 41.03 21.985 41.03 21.985 31.37 27.102 31.37 27.102 31.37 27.102 27.575 21.985 27.575" style="fill:#000;fill-opacity:.78431374"/><path id="path4221" d="m 46.687513,0.78012 c -4.025,0 -7.8775,1.38 -11.2125,4.6 l 2.5875,2.9325 c 2.645,-2.4725 5.0025,-3.68 8.395,-3.68 4.197497,0 7.532497,2.3575 7.532497,6.7275 0,4.7725 -3.7375,6.9575 -7.532497,6.9575 l -2.3575,0 -0.575,3.795 3.335,0 c 4.657497,0 8.222497,1.84 8.222497,7.5325 0,4.945 -3.2775,8.1075 -8.854997,8.1075 -3.22,0 -6.555,-1.3225 -8.7975,-3.9675 l -3.22,2.645 c 2.99,3.68 7.705,5.2325 12.1325,5.2325 8.164997,0 13.742497,-5.175 13.742497,-12.0175 0,-6.1525 -4.37,-9.3725 -9.0275,-9.7175 4.1975,-0.805 7.7625,-4.4275 7.7625,-9.2 0,-5.405 -4.715,-9.9475 -12.132497,-9.9475 l 0,0 z" style="fill:#000;fill-opacity:.78431374"/><path id="path4223" d="m 81.16505,0.78012 c -5.3475,0 -8.9125,1.8975 -12.075,5.6925 l 3.335,2.53 c 2.53,-2.9325 4.6575,-4.1975 8.5675,-4.1975 4.4275,0 7.0725,2.76 7.0725,7.1875 0,6.4975 -3.22,10.81 -18.17,25.1275 l 0,3.91 23.5175,0 0.575,-4.0825 -18.63,0 c 13.0525,-11.9025 17.71,-17.825 17.71,-25.07 0,-6.325 -4.4275,-11.0975 -11.9025,-11.0975 l 0,0 z" style="fill:#000;fill-opacity:.78431374"/><polygon id="path4225" points="117.425 1.47 105.695 8.715 107.765 12.108 116.85 6.645 116.85 37.12 107.075 37.12 107.075 41.03 129.903 41.03 129.903 37.12 129.903 37.12 121.623 37.12 121.623 1.47" style="fill:#000;fill-opacity:.78431374"/><polygon id="path4227" points="194.373 16.305 190.175 16.305 189.773 27.575 178.33 27.575 188.91 2.505 184.943 .78 173.27 27.92 173.27 31.37 189.715 31.37 189.715 41.03 194.373 41.03 194.373 31.37 199.49 31.37 199.49 31.37 199.49 27.575 194.373 27.575" style="fill:#000;fill-opacity:.78431374"/><path id="path4229" d="m 219.07521,0.78012 c -4.025,0 -7.8775,1.38 -11.2125,4.6 l 2.5875,2.9325 c 2.645,-2.4725 5.0025,-3.68 8.395,-3.68 4.1975,0 7.5325,2.3575 7.5325,6.7275 0,4.7725 -3.7375,6.9575 -7.5325,6.9575 l -2.3575,0 -0.575,3.795 3.335,0 c 4.6575,0 8.2225,1.84 8.2225,7.5325 0,4.945 -3.2775,8.1075 -8.855,8.1075 -3.22,0 -6.555,-1.3225 -8.7975,-3.9675 l -3.22,2.645 c 2.99,3.68 7.705,5.2325 12.1325,5.2325 8.165,0 13.7425,-5.175 13.7425,-12.0175 0,-6.1525 -4.37,-9.3725 -9.0275,-9.7175 4.1975,-0.805 7.7625,-4.4275 7.7625,-9.2 0,-5.405 -4.715,-9.9475 -12.1325,-9.9475 l 0,0 z" style="fill:#000;fill-opacity:.78431374"/><path id="path4231" d="m 253.55275,0.78012 c -5.3475,0 -8.9125,1.8975 -12.075,5.6925 l 3.335,2.53 c 2.53,-2.9325 4.6575,-4.1975 8.5675,-4.1975 4.4275,0 7.0725,2.76 7.0725,7.1875 0,6.4975 -3.22,10.81 -18.17,25.1275 l 0,3.91 23.5175,0 0.575,-4.0825 -18.63,0 c 13.0525,-11.9025 17.71,-17.825 17.71,-25.07 0,-6.325 -4.4275,-11.0975 -11.9025,-11.0975 l 0,0 z" style="fill:#000;fill-opacity:.78431374"/><polygon id="path4233" points="289.813 1.47 278.083 8.715 280.153 12.108 289.238 6.645 289.238 37.12 279.463 37.12 279.463 41.03 302.29 41.03 302.29 37.12 302.29 37.12 294.01 37.12 294.01 1.47" style="fill:#000;fill-opacity:.78431374"/><polygon id="path4235" points="366.76 16.305 362.563 16.305 362.16 27.575 350.718 27.575 361.298 2.505 357.33 .78 345.658 27.92 345.658 31.37 362.103 31.37 362.103 41.03 366.76 41.03 366.76 31.37 371.878 31.37 371.878 31.37 371.878 27.575 366.76 27.575" style="fill:#000;fill-opacity:.78431374"/><path id="path4237" d="m 391.4629,0.78012 c -4.025,0 -7.8775,1.38 -11.2125,4.6 l 2.5875,2.9325 c 2.645,-2.4725 5.0025,-3.68 8.395,-3.68 4.1975,0 7.5325,2.3575 7.5325,6.7275 0,4.7725 -3.7375,6.9575 -7.5325,6.9575 l -2.3575,0 -0.575,3.795 3.335,0 c 4.6575,0 8.2225,1.84 8.2225,7.5325 0,4.945 -3.2775,8.1075 -8.855,8.1075 -3.22,0 -6.555,-1.3225 -8.7975,-3.9675 l -3.22,2.645 c 2.99,3.68 7.705,5.2325 12.1325,5.2325 8.165,0 13.7425,-5.175 13.7425,-12.0175 0,-6.1525 -4.37,-9.3725 -9.0275,-9.7175 4.1975,-0.805 7.7625,-4.4275 7.7625,-9.2 0,-5.405 -4.715,-9.9475 -12.1325,-9.9475 l 0,0 z" style="fill:#000;fill-opacity:.78431374"/><path id="path4239" d="m 425.94044,0.78012 c -5.3475,0 -8.9125,1.8975 -12.075,5.6925 l 3.335,2.53 c 2.53,-2.9325 4.6575,-4.1975 8.5675,-4.1975 4.4275,0 7.0725,2.76 7.0725,7.1875 0,6.4975 -3.22,10.81 -18.17,25.1275 l 0,3.91 23.5175,0 0.575,-4.0825 -18.63,0 c 13.0525,-11.9025 17.71,-17.825 17.71,-25.07 0,-6.325 -4.4275,-11.0975 -11.9025,-11.0975 l 0,0 z" style="fill:#000;fill-opacity:.78431374"/><polygon id="path4241" points="462.2 1.47 450.47 8.715 452.54 12.108 461.625 6.645 461.625 37.12 451.85 37.12 451.85 41.03 474.678 41.03 474.678 37.12 474.678 37.12 466.398 37.12 466.398 1.47" style="fill:#000;fill-opacity:.78431374"/><polygon id="path4243" points="539.148 16.305 534.951 16.305 534.548 27.575 523.106 27.575 533.686 2.505 529.718 .78 518.046 27.92 518.046 31.37 534.491 31.37 534.491 41.03 539.148 41.03 539.148 31.37 544.266 31.37 544.266 31.37 544.266 27.575 539.148 27.575" style="fill:#000;fill-opacity:.78431374"/><path id="path4245" d="m 563.8506,0.78012 c -4.025,0 -7.8775,1.38 -11.2125,4.6 l 2.5875,2.9325 c 2.645,-2.4725 5.0025,-3.68 8.395,-3.68 4.1975,0 7.5325,2.3575 7.5325,6.7275 0,4.7725 -3.7375,6.9575 -7.5325,6.9575 l -2.3575,0 -0.575,3.795 3.335,0 c 4.6575,0 8.2225,1.84 8.2225,7.5325 0,4.945 -3.2775,8.1075 -8.855,8.1075 -3.22,0 -6.555,-1.3225 -8.7975,-3.9675 l -3.22,2.645 c 2.99,3.68 7.705,5.2325 12.1325,5.2325 8.165,0 13.7425,-5.175 13.7425,-12.0175 0,-6.1525 -4.37,-9.3725 -9.0275,-9.7175 4.1975,-0.805 7.7625,-4.4275 7.7625,-9.2 0,-5.405 -4.715,-9.9475 -12.1325,-9.9475 l 0,0 z" style="fill:#000;fill-opacity:.78431374"/><path id="path4247" d="m 598.32814,0.78012 c -5.3475,0 -8.9125,1.8975 -12.075,5.6925 l 3.335,2.53 c 2.53,-2.9325 4.6575,-4.1975 8.5675,-4.1975 4.4275,0 7.0725,2.76 7.0725,7.1875 0,6.4975 -3.22,10.81 -18.17,25.1275 l 0,3.91 23.5175,0 0.575,-4.0825 -18.63,0 c 13.0525,-11.9025 17.71,-17.825 17.71,-25.07 0,-6.325 -4.4275,-11.0975 -11.9025,-11.0975 l 0,0 z" style="fill:#000;fill-opacity:.78431374"/><polygon id="path4249" points="634.588 1.47 622.858 8.715 624.928 12.108 634.013 6.645 634.013 37.12 624.238 37.12 624.238 41.03 647.066 41.03 647.066 37.12 647.066 37.12 638.786 37.12 638.786 1.47" style="fill:#000;fill-opacity:.78431374"/></g><g id="text4189" transform="translate(55,658)" style="fill:#000;fill-opacity:.78431374"><polygon id="path4269" points=".04 5.581 .04 1.987 7.013 .581 10.958 .581 10.958 26.421 17.404 26.421 17.404 29.741 .607 29.741 .607 26.421 7.052 26.421 7.052 4.175" style="fill:#000;fill-opacity:.78431374"/><polygon id="path4271" points="25.509 5.581 25.509 1.987 32.482 .581 36.427 .581 36.427 26.421 42.872 26.421 42.872 29.741 26.075 29.741 26.075 26.421 32.521 26.421 32.521 4.175" style="fill:#000;fill-opacity:.78431374"/><path id="path4273" d="m 66.9934,26.42087 13.76953,0 0,3.32031 -18.51563,0 0,-3.32031 c 1.4974,-1.54948 3.53516,-3.626303 6.11328,-6.23047 2.591147,-2.617187 4.218753,-4.303383 4.88282,-5.05859 1.26302,-1.419273 2.141927,-2.61719 2.63672,-3.59375 0.507807,-0.989587 0.76171,-1.95964 0.76171,-2.91016 0,-1.54948 -0.546873,-2.8125 -1.64062,-3.78906 -1.080727,-0.9765667 -2.493487,-1.46485 -4.23828,-1.46485 -1.23698,0 -2.545573,0.2148433 -3.92578,0.64453 -1.367187,0.4296933 -2.83203,1.0807367 -4.39453,1.95313 l 0,-3.98438 c 1.58854,-0.63802 3.072913,-1.11979 4.45312,-1.44531 1.380207,-0.32552 2.643227,-0.48828 3.78906,-0.48828 3.020833,0 5.42969,0.75521 7.22657,2.26563 1.796873,1.5104133 2.69531,3.52864 2.69531,6.05468 0,1.19792 -0.227867,2.337243 -0.6836,3.41797 -0.442707,1.067707 -1.256507,2.330727 -2.4414,3.78906 -0.32552,0.377607 -1.360677,1.471357 -3.10547,3.28125 -1.744793,1.79688 -4.20573,4.316413 -7.38281,7.5586 l 0,0 z" style="fill:#000;fill-opacity:.78431374"/><path id="path4275" d="m 101.01683,14.01852 c 1.88803,0.403647 3.35938,1.243493 4.41407,2.51954 1.06771,1.27604 1.60156,2.85156 1.60156,4.72656 0,2.8776 -0.98958,5.104163 -2.96875,6.67969 -1.97917,1.57552 -4.791667,2.36328 -8.4375,2.36328 -1.22396,0 -2.48698,-0.1237 -3.78906,-0.3711 -1.289067,-0.234373 -2.623703,-0.592447 -4.00391,-1.07422 l 0,-3.80859 c 1.093753,0.63802 2.29167,1.11979 3.59375,1.44531 1.302087,0.32552 2.662763,0.48828 4.08203,0.48828 2.47396,0 4.35547,-0.48828 5.64453,-1.46484 1.30209,-0.97656 1.95313,-2.39583 1.95313,-4.25781 0,-1.718753 -0.60547,-3.0599 -1.81641,-4.02344 -1.19791,-0.97656 -2.87109,-1.46484 -5.01953,-1.46484 l -3.39844,0 0,-3.24219 3.55469,0 c 1.940107,0 3.424483,-0.384113 4.45313,-1.15234 1.02864,-0.781253 1.54296,-1.9010467 1.54296,-3.35938 0,-1.4973933 -0.53385,-2.6432267 -1.60156,-3.4375 -1.054687,-0.8072933 -2.571613,-1.21094 -4.55078,-1.21094 -1.080727,0 -2.23958,0.11719 -3.47656,0.35157 -1.23698,0.2343733 -2.597657,0.5989567 -4.08203,1.09375 l 0,-3.51563 c 1.497393,-0.41666667 2.897133,-0.72916667 4.19922,-0.9375 1.3151,-0.20833333 2.552077,-0.3125 3.71093,-0.3125 2.994793,0 5.36459,0.68359333 7.10938,2.05078 1.74479,1.3541667 2.61719,3.1901033 2.61719,5.50781 0,1.6145867 -0.46224,2.981777 -1.38672,4.10157 -0.92448,1.106767 -2.23959,1.874993 -3.94532,2.30468 l 0,0 z" style="fill:#000;fill-opacity:.78431374"/><path id="path4277" d="m 127.3059,0.58102 15.48828,0 0,3.32032 -11.875,0 0,7.14843 c 0.57291,-0.195307 1.14583,-0.338533 1.71875,-0.42968 0.57291,-0.104167 1.14583,-0.15625 1.71875,-0.15625 3.25521,0 5.83333,0.891927 7.73437,2.67578 1.90105,1.783853 2.85157,4.199217 2.85157,7.24609 0,3.13802 -0.97656,5.579427 -2.92969,7.32422 -1.95313,1.731773 -4.70703,2.59766 -8.26172,2.59766 -1.22396,0 -2.47396,-0.104167 -3.75,-0.3125 -1.26302,-0.208333 -2.57161,-0.520833 -3.92578,-0.9375 l 0,-3.96485 c 1.17187,0.63802 2.38281,1.11328 3.63281,1.42578 1.25,0.3125 2.57161,0.46875 3.96484,0.46875 2.25261,0 4.03646,-0.592447 5.35157,-1.77734 1.3151,-1.184893 1.97265,-2.792967 1.97265,-4.82422 0,-2.031247 -0.65755,-3.63932 -1.97265,-4.82422 -1.31511,-1.184893 -3.09896,-1.77734 -5.35157,-1.77734 -1.05469,0 -2.10937,0.117187 -3.16406,0.35156 -1.04167,0.234373 -2.10937,0.598957 -3.20312,1.09375 l 0,-14.64844 0,0 z" style="fill:#000;fill-opacity:.78431374"/><path id="path4279" d="m 161.17308,15.89352 c -1.875,0 -3.35286,0.501303 -4.43359,1.50391 -1.06771,1.002607 -1.60156,2.382817 -1.60156,4.14063 0,1.757807 0.53385,3.138013 1.60156,4.14062 1.08073,1.002607 2.55859,1.50391 4.43359,1.50391 1.875,0 3.35287,-0.501303 4.4336,-1.50391 1.08073,-1.015627 1.62109,-2.395833 1.62109,-4.14062 0,-1.757813 -0.54036,-3.138023 -1.62109,-4.14063 -1.06771,-1.002607 -2.54557,-1.50391 -4.4336,-1.50391 l 0,0 z m -3.94531,-1.67968 c -1.69271,-0.416667 -3.01432,-1.204427 -3.96484,-2.36328 -0.9375,-1.15886 -1.40625,-2.5716233 -1.40625,-4.23829 0,-2.3307267 0.82682,-4.1731733 2.48047,-5.52734 1.66667,-1.35416667 3.94531,-2.03125 6.83593,-2.03125 2.90365,0 5.18229,0.67708333 6.83594,2.03125 1.65365,1.3541667 2.48047,3.1966133 2.48047,5.52734 0,1.6666667 -0.47526,3.07943 -1.42578,4.23829 -0.9375,1.158853 -2.24609,1.946613 -3.92578,2.36328 1.90104,0.442707 3.3789,1.30859 4.43359,2.59765 1.06771,1.289067 1.60156,2.86459 1.60156,4.72657 0,2.82552 -0.86588,4.993487 -2.59765,6.5039 -1.71875,1.51042 -4.1862,2.26563 -7.40235,2.26563 -3.21614,0 -5.6901,-0.75521 -7.42187,-2.26563 -1.71875,-1.510413 -2.57813,-3.67838 -2.57813,-6.5039 0,-1.86198 0.53386,-3.437503 1.60157,-4.72657 1.06771,-1.28906 2.55208,-2.154943 4.45312,-2.59765 l 0,0 z m -1.44531,-6.23047 c 0,1.5104133 0.46875,2.688797 1.40625,3.53515 0.95052,0.84636 2.27864,1.26954 3.98437,1.26954 1.69271,0 3.01433,-0.42318 3.96485,-1.26954 0.96354,-0.846353 1.44531,-2.0247367 1.44531,-3.53515 0,-1.51042 -0.48177,-2.6888067 -1.44531,-3.53516 -0.95052,-0.8463533 -2.27214,-1.26953 -3.96485,-1.26953 -1.70573,0 -3.03385,0.4231767 -3.98437,1.26953 -0.9375,0.8463533 -1.40625,2.02474 -1.40625,3.53516 l 0,0 z" style="fill:#000;fill-opacity:.78431374"/></g><g id="text4214" transform="translate(308,657)" style="fill:#000;fill-opacity:.78431374"><polygon id="path4252" points=".27 5.613 .27 2.02 7.242 .613 11.188 .613 11.188 26.453 17.633 26.453 17.633 29.773 .836 29.773 .836 26.453 7.281 26.453 7.281 4.207" style="fill:#000;fill-opacity:.78431374"/><path id="path4254" d="m 37.57446,14.05078 c 1.88802,0.403647 3.359377,1.24349 4.41407,2.51953 1.067707,1.27604 1.60156,2.85156 1.60156,4.72656 0,2.877607 -0.989583,5.10417 -2.96875,6.67969 -1.979167,1.57552 -4.791667,2.36328 -8.4375,2.36328 -1.22396,0 -2.48698,-0.123697 -3.78906,-0.37109 -1.289067,-0.234373 -2.623703,-0.592447 -4.00391,-1.07422 l 0,-3.80859 c 1.093747,0.63802 2.291663,1.11979 3.59375,1.44531 1.30208,0.32552 2.662757,0.48828 4.08203,0.48828 2.47396,0 4.35547,-0.48828 5.64453,-1.46484 1.302087,-0.976567 1.95313,-2.39584 1.95313,-4.25782 0,-1.718747 -0.60547,-3.05989 -1.81641,-4.02343 -1.197913,-0.976567 -2.87109,-1.46485 -5.01953,-1.46485 l -3.39844,0 0,-3.24218 3.55469,0 c 1.940107,0 3.42448,-0.384117 4.45312,-1.15235 1.028647,-0.781247 1.54297,-1.9010367 1.54297,-3.35937 0,-1.4974 -0.533853,-2.6432333 -1.60156,-3.4375 -1.054687,-0.8072933 -2.571613,-1.21094 -4.55078,-1.21094 -1.080727,0 -2.23958,0.1171867 -3.47656,0.35156 -1.23698,0.2343733 -2.597657,0.5989567 -4.08203,1.09375 l 0,-3.51562 c 1.497393,-0.41666667 2.89713,-0.72916667 4.19921,-0.9375 1.315107,-0.20833333 2.552087,-0.3125 3.71094,-0.3125 2.994793,0 5.364587,0.68359333 7.10938,2.05078 1.744787,1.3541667 2.61718,3.1901033 2.61718,5.50781 0,1.6145867 -0.462237,2.981773 -1.38671,4.10156 -0.92448,1.106773 -2.239587,1.875003 -3.94532,2.30469 l 0,0 z" style="fill:#000;fill-opacity:.78431374"/><path id="path4256" d="m 54.48853,26.45312 13.76953,0 0,3.32032 -18.51563,0 0,-3.32032 c 1.4974,-1.549473 3.53516,-3.626293 6.11328,-6.23046 2.591147,-2.617193 4.218753,-4.303393 4.88282,-5.0586 1.26302,-1.419267 2.141923,-2.617183 2.63671,-3.59375 0.507813,-0.98958 0.76172,-1.95963 0.76172,-2.91015 0,-1.54948 -0.546873,-2.8125033 -1.64062,-3.78907 -1.080733,-0.97656 -2.493493,-1.46484 -4.23828,-1.46484 -1.23698,0 -2.545573,0.2148433 -3.92578,0.64453 -1.367193,0.4296867 -2.83204,1.08073 -4.39454,1.95313 l 0,-3.98438 c 1.588547,-0.63802 3.072923,-1.11979 4.45313,-1.44531 1.380207,-0.32552 2.643227,-0.48828 3.78906,-0.48828 3.020833,0 5.429687,0.75520667 7.22656,2.26562 1.79688,1.51042 2.69532,3.52865 2.69532,6.05469 0,1.1979133 -0.227867,2.337237 -0.6836,3.41797 -0.442707,1.067707 -1.256507,2.330727 -2.4414,3.78906 -0.32552,0.377607 -1.360677,1.471357 -3.10547,3.28125 -1.744793,1.796873 -4.20573,4.316403 -7.38281,7.55859 l 0,0 z" style="fill:#000;fill-opacity:.78431374"/><polygon id="path4258" points="76.676 5.613 76.676 2.02 83.649 .613 87.594 .613 87.594 26.453 94.039 26.453 94.039 29.773 77.242 29.773 77.242 26.453 83.688 26.453 83.688 4.207" style="fill:#000;fill-opacity:.78431374"/><path id="path4260" d="m 126.71509,14.05078 c 1.88802,0.403647 3.35937,1.24349 4.41406,2.51953 1.06771,1.27604 1.60156,2.85156 1.60156,4.72656 0,2.877607 -0.98958,5.10417 -2.96875,6.67969 -1.97917,1.57552 -4.79167,2.36328 -8.4375,2.36328 -1.22395,0 -2.48697,-0.123697 -3.78906,-0.37109 -1.28906,-0.234373 -2.6237,-0.592447 -4.00391,-1.07422 l 0,-3.80859 c 1.09375,0.63802 2.29167,1.11979 3.59375,1.44531 1.30209,0.32552 2.66277,0.48828 4.08204,0.48828 2.47395,0 4.35546,-0.48828 5.64453,-1.46484 1.30208,-0.976567 1.95312,-2.39584 1.95312,-4.25782 0,-1.718747 -0.60547,-3.05989 -1.8164,-4.02343 -1.19792,-0.976567 -2.8711,-1.46485 -5.01954,-1.46485 l -3.39843,0 0,-3.24218 3.55468,0 c 1.94011,0 3.42448,-0.384117 4.45313,-1.15235 1.02865,-0.781247 1.54297,-1.9010367 1.54297,-3.35937 0,-1.4974 -0.53385,-2.6432333 -1.60156,-3.4375 -1.05469,-0.8072933 -2.57162,-1.21094 -4.55079,-1.21094 -1.08073,0 -2.23958,0.1171867 -3.47656,0.35156 -1.23698,0.2343733 -2.59766,0.5989567 -4.08203,1.09375 l 0,-3.51562 c 1.49739,-0.41666667 2.89713,-0.72916667 4.19922,-0.9375 1.31511,-0.20833333 2.55209,-0.3125 3.71094,-0.3125 2.99479,0 5.36458,0.68359333 7.10937,2.05078 1.74479,1.3541667 2.61719,3.1901033 2.61719,5.50781 0,1.6145867 -0.46224,2.981773 -1.38672,4.10156 -0.92448,1.106773 -2.23958,1.875003 -3.94531,2.30469 l 0,0 z" style="fill:#000;fill-opacity:.78431374"/><path id="path4262" d="m 151.07056,4.05078 -9.96094,15.56641 9.96094,0 0,-15.56641 0,0 z m -1.03516,-3.4375 4.96094,0 0,19.00391 4.16015,0 0,3.28125 -4.16015,0 0,6.875 -3.92578,0 0,-6.875 -13.16407,0 0,-3.8086 12.12891,-18.47656 0,0 z" style="fill:#000;fill-opacity:.78431374"/><path id="path4264" d="m 165.73853,0.61328 15.48828,0 0,3.32031 -11.875,0 0,7.14844 c 0.57291,-0.195313 1.14583,-0.338543 1.71875,-0.42969 0.57291,-0.104167 1.14583,-0.15625 1.71875,-0.15625 3.25521,0 5.83333,0.891927 7.73437,2.67578 1.90104,1.78386 2.85156,4.199227 2.85156,7.2461 0,3.13802 -0.97656,5.579427 -2.92968,7.32422 -1.95313,1.731767 -4.70703,2.59765 -8.26172,2.59765 -1.22396,0 -2.47396,-0.104167 -3.75,-0.3125 -1.26302,-0.208333 -2.57161,-0.520833 -3.92578,-0.9375 l 0,-3.96484 c 1.17187,0.63802 2.38281,1.11328 3.63281,1.42578 1.25,0.3125 2.57161,0.46875 3.96484,0.46875 2.25261,0 4.03646,-0.592447 5.35157,-1.77734 1.3151,-1.1849 1.97265,-2.792973 1.97265,-4.82422 0,-2.031253 -0.65755,-3.639327 -1.97265,-4.82422 -1.31511,-1.184893 -3.09896,-1.77734 -5.35157,-1.77734 -1.05469,0 -2.10937,0.117187 -3.16406,0.35156 -1.04167,0.234373 -2.10937,0.598957 -3.20312,1.09375 l 0,-14.64844 0,0 z" style="fill:#000;fill-opacity:.78431374"/><path id="path4266" d="m 191.20728,0.61328 15.48828,0 0,3.32031 -11.875,0 0,7.14844 c 0.57291,-0.195313 1.14583,-0.338543 1.71875,-0.42969 0.57291,-0.104167 1.14583,-0.15625 1.71875,-0.15625 3.25521,0 5.83333,0.891927 7.73437,2.67578 1.90104,1.78386 2.85156,4.199227 2.85156,7.2461 0,3.13802 -0.97656,5.579427 -2.92968,7.32422 -1.95313,1.731767 -4.70703,2.59765 -8.26172,2.59765 -1.22396,0 -2.47396,-0.104167 -3.75,-0.3125 -1.26302,-0.208333 -2.57161,-0.520833 -3.92578,-0.9375 l 0,-3.96484 c 1.17187,0.63802 2.38281,1.11328 3.63281,1.42578 1.25,0.3125 2.57161,0.46875 3.96484,0.46875 2.25261,0 4.03646,-0.592447 5.35157,-1.77734 1.3151,-1.1849 1.97265,-2.792973 1.97265,-4.82422 0,-2.031253 -0.65755,-3.639327 -1.97265,-4.82422 -1.31511,-1.184893 -3.09896,-1.77734 -5.35157,-1.77734 -1.05469,0 -2.10937,0.117187 -3.16406,0.35156 -1.04167,0.234373 -2.10937,0.598957 -3.20312,1.09375 l 0,-14.64844 0,0 z" style="fill:#000;fill-opacity:.78431374"/></g></g></g></g></g></svg>